<!-- Generator: Adobe Illustrator 21.0.0, SVG Export Plug-In  -->
<svg version="1.1"
	 xmlns="http://www.w3.org/2000/svg" xmlns:xlink="http://www.w3.org/1999/xlink" xmlns:a="http://ns.adobe.com/AdobeSVGViewerExtensions/3.0/"
	 x="0px" y="0px" width="71.429px" height="249.086px" viewBox="0 0 71.429 249.086"
	 style="enable-background:new 0 0 71.429 249.086;" xml:space="preserve">
<style type="text/css">
	.st0{fill:#171717;}
	.st1{fill:#00A5E6;}
	.st2{fill:#FFFFFF;}
	.st3{fill:#ED1C24;}
	.st4{clip-path:url(#SVGID_2_);}
	.st5{fill:#0077FE;}
	.st6{fill:#FEFEFD;}
	.st7{fill:#FDFDFD;}
	.st8{fill:#2DA9DF;}
	.st9{clip-path:url(#SVGID_4_);}
</style>
<defs>
</defs>
<g>
	<g>
		<g>
			<path class="st0" d="M38.629,180.371c-2.08,0-4.16,0-6.24,0c-0.408-0.426-0.98-0.346-1.479-0.436
				c-5.413-0.984-10.134-3.349-14.079-7.17c-6.002-5.813-8.582-12.945-8.495-21.285c0.123-11.924,7.913-22.456,19.302-26.031
				c1.646-0.517,3.435-0.419,5.001-1.236c1.83,0,3.661,0,5.491,0c1.83,0.405,3.696,0.631,5.501,1.17
				c2.65,0.791,5.104,1.983,7.399,3.506c4.242,2.817,7.41,6.574,9.579,11.163c2.527,5.343,3.137,11.005,2.234,16.766
				c-1.705,10.867-7.93,18.136-18.148,22.064C42.734,179.637,40.634,179.808,38.629,180.371z M48.922,166.184
				c1.213-1.494,2.01-3.08,2.795-4.675c0.735-1.494,0.652-2.926-0.155-4.391c-3.324-6.032-6.711-12.028-10.165-17.987
				c-0.794-1.37-1.87-1.91-3.346-1.916c-1.454-0.006-2.909,0.029-4.361-0.024c-1.053-0.038-1.078,0.282-0.606,1.109
				c3,5.262,5.954,10.549,8.942,15.818C44.296,158.123,46.593,162.112,48.922,166.184z M42.907,165.864
				c-1.051-2.166-2.194-4.039-3.358-5.901c-0.207-0.331-0.457-0.546-0.894-0.565c-6.15-0.266-12.299-0.31-18.45-0.047
				c-0.889,0.038-0.951,0.397-0.618,1.078c0.767,1.569,1.592,3.111,2.61,4.526c0.403,0.56,0.964,1.308,1.774,1.099
				c0.835-0.216,1.64-0.145,2.453-0.123C31.864,166.077,37.304,166.179,42.907,165.864z M34.172,154.687
				c0.472-0.124,0.939-0.273,1.417-0.364c0.516-0.099,0.577-0.304,0.336-0.76c-1.998-3.776-4.075-7.507-6.263-11.177
				c-0.352-0.591-0.671-0.539-0.982,0.001c-2.127,3.704-4.253,7.407-6.361,11.122c-0.317,0.559-0.356,0.898,0.564,0.924
				C26.643,154.539,30.405,154.442,34.172,154.687z"/>
			<path class="st1" d="M48.922,166.184c-2.329-4.072-4.626-8.061-6.897-12.066c-2.987-5.269-5.942-10.557-8.942-15.818
				c-0.472-0.827-0.447-1.147,0.606-1.109c1.452,0.053,2.907,0.018,4.361,0.024c1.476,0.006,2.552,0.545,3.346,1.916
				c3.454,5.959,6.84,11.955,10.165,17.987c0.807,1.465,0.89,2.897,0.155,4.391C50.932,163.104,50.134,164.691,48.922,166.184z"/>
			<path class="st1" d="M42.907,165.864c-5.602,0.315-11.042,0.213-16.483,0.066c-0.813-0.022-1.617-0.093-2.453,0.123
				c-0.809,0.209-1.371-0.539-1.774-1.099c-1.018-1.414-1.843-2.957-2.61-4.526c-0.333-0.681-0.271-1.04,0.618-1.078
				c6.152-0.263,12.301-0.219,18.45,0.047c0.437,0.019,0.687,0.234,0.894,0.565C40.713,161.825,41.855,163.698,42.907,165.864z"/>
			<path class="st1" d="M34.172,154.687c-3.766-0.245-7.529-0.148-11.288-0.253c-0.92-0.026-0.881-0.365-0.564-0.924
				c2.108-3.715,4.235-7.418,6.361-11.122c0.31-0.541,0.629-0.592,0.982-0.001c2.188,3.67,4.265,7.401,6.263,11.177
				c0.241,0.456,0.18,0.661-0.336,0.76C35.111,154.414,34.644,154.563,34.172,154.687z"/>
		</g>
	</g>
	<g>
		<g>
			<path d="M34.291,0c1.414,0,2.829,0,4.243,0c0.278,0.069,0.553,0.164,0.835,0.202c11.693,1.583,19.564,7.969,23.593,19.004
				c0.812,2.223,1.035,4.661,1.53,7c0,1.331,0,2.662,0,3.993c-0.072,0.318-0.178,0.632-0.211,0.953
				c-1.116,11.002-9.075,20.649-19.69,23.74c-1.974,0.575-4.035,0.85-6.056,1.264c-1.414,0-2.829,0-4.243,0
				c-0.652-0.096-1.307-0.172-1.955-0.29C21.237,53.84,13.638,47.602,9.832,36.946C9.09,34.867,8.821,32.62,8.334,30.45
				c0-1.664,0-3.328,0-4.992c0.073-0.277,0.182-0.55,0.214-0.832C9.812,13.75,17.703,4.33,28.231,1.259
				C30.206,0.683,32.269,0.412,34.291,0z M22.074,40.535c9.484,0,18.818,0,28.232,0c0-6.973,0-13.88,0-20.919
				c-0.361,0.246-0.607,0.391-0.829,0.567c-3.738,2.974-7.473,5.951-11.207,8.931c-1.636,1.306-2.245,1.314-3.937,0.03
				c-3.572-2.712-7.142-5.427-10.717-8.135c-0.472-0.358-0.969-0.682-1.544-1.084C22.074,26.891,22.074,33.661,22.074,40.535z
				 M23.353,15.634c4.507,3.45,8.765,6.708,13.05,9.988c4.185-3.308,8.297-6.558,12.636-9.988
				C40.377,15.634,32.032,15.634,23.353,15.634z"/>
			<path class="st2" d="M22.074,40.535c0-6.875,0-13.644,0-20.611c0.574,0.402,1.071,0.727,1.544,1.084
				c3.575,2.708,7.145,5.423,10.717,8.135c1.692,1.285,2.301,1.276,3.937-0.03c3.733-2.98,7.469-5.956,11.207-8.931
				c0.221-0.176,0.468-0.321,0.829-0.567c0,7.04,0,13.946,0,20.919C40.892,40.535,31.558,40.535,22.074,40.535z"/>
			<path class="st3" d="M23.353,15.634c8.679,0,17.023,0,25.686,0c-4.339,3.43-8.452,6.68-12.636,9.988
				C32.118,22.343,27.861,19.084,23.353,15.634z"/>
		</g>
	</g>
	<g>
		<g>
			<defs>
				<circle id="SVGID_1_" cx="35.612" cy="215.591" r="27.278"/>
			</defs>
			<clipPath id="SVGID_2_">
				<use xlink:href="#SVGID_1_"  style="overflow:visible;"/>
			</clipPath>
			<g class="st4">
				<rect y="177.657" class="st5" width="71.429" height="71.429"/>
				<path class="st5" d="M35.601,239.747c-7.892,0-15.784-0.001-23.676,0.004c-0.175,0-0.215-0.039-0.214-0.215
					c0.005-15.8,0.005-31.6,0-47.399c0-0.175,0.039-0.215,0.214-0.214c15.8,0.005,31.6,0.005,47.399,0
					c0.175,0,0.215,0.039,0.214,0.214c-0.005,15.8-0.005,31.6,0,47.399c0,0.175-0.039,0.215-0.214,0.215
					C51.417,239.746,43.509,239.747,35.601,239.747z M32.556,214.55c0.081-0.026,0.159-0.051,0.237-0.076
					c1.379-0.452,2.281-1.356,2.612-2.786c0.293-1.263,0.18-2.505-0.259-3.715c-0.297-0.819-0.784-1.52-1.458-2.078
					c-1.19-0.986-2.588-1.405-4.108-1.411c-3.844-0.015-7.689-0.006-11.533-0.006c-0.306,0-0.32,0.015-0.32,0.339
					c0,7.175,0,14.35,0,21.525c0,0.331,0.003,0.333,0.344,0.333c3.704,0,7.409-0.001,11.113,0c1.052,0,2.076-0.165,3.065-0.521
					c1.547-0.558,2.766-1.5,3.473-3.025c0.358-0.771,0.522-1.586,0.578-2.434c0.081-1.219-0.014-2.409-0.464-3.552
					c-0.545-1.386-1.508-2.277-3.02-2.503C32.731,214.628,32.623,214.66,32.556,214.55z M47.715,219.757
					c1.829,0,3.657-0.001,5.486,0.002c0.173,0,0.299-0.011,0.309-0.238c0.072-1.596-0.02-3.172-0.56-4.694
					c-0.818-2.307-2.368-3.838-4.772-4.429c-1.636-0.402-3.285-0.383-4.921,0.004c-1.759,0.416-3.238,1.312-4.262,2.817
					c-1.785,2.622-2.25,5.493-1.357,8.541c0.736,2.513,2.376,4.197,4.9,4.941c1.936,0.57,3.909,0.592,5.883,0.18
					c1.11-0.232,2.14-0.649,3.034-1.365c1.288-1.031,1.82-2.42,1.898-4.022c0.01-0.2-0.096-0.248-0.275-0.247
					c-1.113,0.005-2.225,0.005-3.338,0c-0.186-0.001-0.277,0.053-0.312,0.253c-0.136,0.795-0.59,1.359-1.318,1.694
					c-1.008,0.464-2.069,0.531-3.149,0.36c-0.719-0.114-1.373-0.39-1.915-0.897c-0.761-0.712-1.018-1.625-1.077-2.627
					c-0.012-0.213,0.038-0.278,0.259-0.277C44.058,219.761,45.887,219.757,47.715,219.757z M45.524,208.472
					c1.432,0,2.864-0.004,4.295,0.004c0.221,0.001,0.301-0.065,0.297-0.292c-0.012-0.7-0.011-1.401,0-2.101
					c0.003-0.217-0.057-0.3-0.288-0.3c-2.863,0.007-5.727,0.006-8.59,0.001c-0.21,0-0.288,0.06-0.284,0.279
					c0.011,0.7,0.004,1.401,0.004,2.101c0,0.303,0.006,0.309,0.318,0.309C42.692,208.472,44.108,208.472,45.524,208.472z"/>
				<path class="st6" d="M32.556,214.55c0.067,0.11,0.175,0.078,0.26,0.09c1.512,0.226,2.475,1.117,3.02,2.503
					c0.45,1.143,0.545,2.333,0.464,3.552c-0.056,0.848-0.22,1.663-0.578,2.434c-0.707,1.524-1.926,2.467-3.473,3.025
					c-0.989,0.357-2.013,0.522-3.065,0.521c-3.704-0.001-7.409,0-11.113,0c-0.341,0-0.344-0.002-0.344-0.333
					c0-7.175,0-14.35,0-21.525c0-0.323,0.014-0.339,0.32-0.339c3.844,0,7.689-0.009,11.533,0.006
					c1.52,0.006,2.917,0.425,4.108,1.411c0.674,0.558,1.161,1.258,1.458,2.078c0.439,1.21,0.552,2.452,0.259,3.715
					c-0.331,1.43-1.233,2.334-2.612,2.786C32.714,214.499,32.636,214.524,32.556,214.55z M26.147,216.775c-1.003,0-2.007,0-3.01,0
					c-0.345,0-0.347,0.002-0.347,0.348c-0.001,1.758-0.001,3.515,0,5.273c0,0.342,0.002,0.345,0.351,0.345
					c1.789,0,3.578,0,5.366-0.001c0.303,0,0.605,0.004,0.907-0.038c1.126-0.159,1.832-0.76,2.087-1.812
					c0.158-0.651,0.162-1.313,0.031-1.967c-0.291-1.454-1.153-2.147-2.632-2.147C27.982,216.775,27.064,216.775,26.147,216.775z
					 M26.163,208.407v-0.003c-1.042,0-2.085,0.004-3.127-0.004c-0.181-0.001-0.247,0.054-0.247,0.234
					c0.004,1.501,0.003,3.003,0.001,4.504c0,0.159,0.043,0.234,0.225,0.233c2.03-0.009,4.061-0.002,6.091-0.017
					c0.819-0.006,1.337-0.425,1.567-1.212c0.195-0.668,0.195-1.352,0.129-2.036c-0.024-0.255-0.094-0.505-0.209-0.737
					c-0.304-0.617-0.774-0.972-1.49-0.965C28.123,208.414,27.143,208.407,26.163,208.407z"/>
				<path class="st7" d="M47.715,219.757c-1.829,0-3.657,0.004-5.486-0.005c-0.221-0.001-0.272,0.064-0.259,0.277
					c0.058,1.001,0.316,1.915,1.077,2.627c0.541,0.507,1.195,0.783,1.915,0.897c1.08,0.171,2.141,0.104,3.149-0.36
					c0.728-0.335,1.182-0.899,1.318-1.694c0.034-0.2,0.126-0.254,0.312-0.253c1.113,0.005,2.225,0.005,3.338,0
					c0.18-0.001,0.285,0.048,0.275,0.247c-0.078,1.603-0.61,2.991-1.898,4.022c-0.894,0.716-1.925,1.133-3.034,1.365
					c-1.974,0.413-3.947,0.391-5.883-0.18c-2.524-0.744-4.164-2.428-4.9-4.941c-0.893-3.048-0.428-5.919,1.357-8.541
					c1.024-1.504,2.503-2.401,4.262-2.817c1.636-0.387,3.285-0.406,4.921-0.004c2.404,0.591,3.953,2.122,4.772,4.429
					c0.54,1.522,0.633,3.098,0.56,4.694c-0.01,0.227-0.136,0.238-0.309,0.238C51.372,219.756,49.544,219.757,47.715,219.757z
					 M45.572,216.78c1.019,0,2.039,0,3.058,0c0.641,0,0.65-0.002,0.533-0.632c-0.216-1.161-0.76-2.094-1.911-2.543
					c-0.828-0.323-1.689-0.322-2.546-0.103c-1.682,0.43-2.482,1.906-2.752,3.121c-0.042,0.19,0.083,0.156,0.187,0.156
					C43.284,216.78,44.428,216.78,45.572,216.78z"/>
				<path class="st6" d="M45.524,208.472c-1.416,0-2.832,0-4.249,0c-0.312,0-0.317-0.006-0.318-0.309
					c-0.001-0.7,0.007-1.401-0.004-2.101c-0.004-0.218,0.074-0.279,0.284-0.279c2.863,0.005,5.727,0.006,8.59-0.001
					c0.231-0.001,0.291,0.083,0.288,0.3c-0.01,0.7-0.011,1.401,0,2.101c0.004,0.227-0.077,0.294-0.297,0.292
					C48.388,208.468,46.956,208.472,45.524,208.472z"/>
				<path class="st5" d="M26.147,216.775c0.918,0,1.835,0,2.753,0c1.479,0,2.341,0.693,2.632,2.147
					c0.131,0.654,0.127,1.316-0.031,1.967c-0.255,1.052-0.961,1.653-2.087,1.812c-0.302,0.043-0.605,0.038-0.907,0.038
					c-1.789,0.001-3.578,0.001-5.366,0.001c-0.349,0-0.351-0.002-0.351-0.345c-0.001-1.758-0.001-3.515,0-5.273
					c0-0.346,0.002-0.347,0.347-0.348C24.14,216.775,25.143,216.775,26.147,216.775z"/>
				<path class="st5" d="M26.163,208.407c0.98,0,1.96,0.007,2.94-0.002c0.716-0.007,1.186,0.348,1.49,0.965
					c0.114,0.232,0.185,0.482,0.209,0.737c0.065,0.684,0.066,1.368-0.129,2.036c-0.23,0.787-0.747,1.206-1.567,1.212
					c-2.03,0.015-4.06,0.008-6.091,0.017c-0.183,0.001-0.225-0.074-0.225-0.233c0.002-1.501,0.003-3.003-0.001-4.504
					c0-0.18,0.066-0.236,0.247-0.234c1.042,0.008,2.085,0.004,3.127,0.004V208.407z"/>
				<path class="st5" d="M45.572,216.78c-1.144,0-2.288,0-3.431,0c-0.104,0-0.229,0.033-0.187-0.156
					c0.27-1.215,1.071-2.69,2.752-3.121c0.857-0.219,1.718-0.22,2.546,0.103c1.151,0.449,1.695,1.382,1.911,2.543
					c0.117,0.631,0.108,0.632-0.533,0.632C47.611,216.78,46.591,216.78,45.572,216.78z"/>
			</g>
		</g>
	</g>
	<g>
		<g>
			<g>
				<path class="st8" d="M35.518,117.275c-14.909,0.316-27.324-12.266-27.183-27.087c0.143-14.967,12.107-27.073,27.026-27.08
					c14.932-0.007,27.157,12.185,27.183,27.109C62.569,105.136,50.445,117.275,35.518,117.275z M24.129,86.861
					c0.013,0,0.026,0,0.039,0c0,2.495-0.031,4.99,0.007,7.485c0.073,4.838,3.588,9.333,8.294,10.476
					c3.642,0.885,7.363,0.512,11.041,0.287c1.844-0.113,3.04-1.64,3.131-3.321c0.135-2.507-1.305-4.127-3.837-4.199
					c-2.493-0.071-4.99-0.019-7.484-0.083c-1.954-0.05-3.348-1.456-3.448-3.398c-0.045-0.871,0.028-1.751-0.052-2.618
					c-0.087-0.941,0.257-1.209,1.19-1.197c3.284,0.044,6.57,0.027,9.854-0.016c2.272-0.03,3.783-1.567,3.781-3.744
					c-0.003-2.338-1.407-3.665-3.831-3.793c-2.698-0.143-5.388-0.108-8.087-0.01c-2.817,0.102-2.806,0.023-2.88-2.749
					c-0.03-1.115,0.009-2.265-0.681-3.238c-0.991-1.399-2.59-1.903-4.307-1.392c-1.608,0.478-2.702,1.951-2.721,3.774
					C24.109,81.704,24.129,84.283,24.129,86.861z"/>
				<path class="st8" d="M24.129,86.861c0-2.578-0.02-5.157,0.007-7.735c0.019-1.823,1.113-3.296,2.721-3.774
					c1.717-0.511,3.316-0.007,4.307,1.392c0.69,0.973,0.651,2.123,0.681,3.238c0.074,2.772,0.063,2.851,2.88,2.749
					c2.699-0.098,5.388-0.133,8.087,0.01c2.424,0.128,3.828,1.456,3.831,3.793c0.002,2.177-1.509,3.714-3.781,3.744
					c-3.284,0.043-6.57,0.06-9.854,0.016c-0.933-0.013-1.277,0.255-1.19,1.197c0.08,0.867,0.007,1.746,0.052,2.618
					c0.1,1.942,1.494,3.348,3.448,3.398c2.494,0.064,4.991,0.012,7.484,0.083c2.533,0.072,3.972,1.692,3.837,4.199
					c-0.091,1.681-1.287,3.208-3.131,3.321c-3.678,0.225-7.399,0.598-11.041-0.287c-4.706-1.143-8.221-5.638-8.294-10.476
					c-0.038-2.494-0.007-4.99-0.007-7.485C24.155,86.861,24.142,86.861,24.129,86.861z"/>
			</g>
		</g>
		<g>
			<path class="st2" d="M19.901,100.141c0.608,0.003,1.216,0.023,1.823,0.007c2.709-0.075,5.157-0.93,7.361-2.5
				c0.056-0.04,0.113-0.081,0.164-0.127c0.016-0.014,0.014-0.048,0.026-0.092c-2.886-0.263-4.885-1.716-5.994-4.496
				c0.664,0.084,1.264,0.14,1.864,0.066c0.251-0.031,0.673,0.031,0.702-0.174c0.034-0.239-0.383-0.209-0.599-0.291
				c-2.451-0.921-4.112-3.181-4.235-5.796c-0.004-0.09-0.044-0.191,0.06-0.302c0.724,0.36,1.49,0.63,2.31,0.716
				c0.134,0.014,0.269,0.064,0.452-0.016c-0.151-0.123-0.283-0.231-0.415-0.339c-2.314-1.888-3.018-5.152-1.685-7.822
				c0.203-0.407,0.199-0.404,0.498-0.066c3.372,3.811,7.599,5.928,12.661,6.388c0.519,0.047,0.52,0.039,0.443-0.476
				c-0.581-3.876,2.439-7.384,6.347-7.406c1.824-0.011,3.391,0.583,4.706,1.838c0.168,0.161,0.32,0.164,0.523,0.12
				c1.296-0.278,2.503-0.789,3.677-1.389c0.027,0.021,0.053,0.042,0.08,0.063c-0.483,1.398-1.389,2.466-2.685,3.344
				c0.495,0.008,0.872-0.102,1.249-0.183c0.378-0.081,0.752-0.19,1.121-0.307c0.38-0.12,0.752-0.265,1.199-0.424
				c-0.079,0.134-0.123,0.223-0.18,0.302c-0.759,1.053-1.652,1.978-2.695,2.75c-0.239,0.177-0.312,0.358-0.315,0.651
				c-0.087,6.928-2.942,12.378-8.793,16.144c-2.813,1.811-5.973,2.567-9.31,2.642c-3.519,0.079-6.804-0.737-9.858-2.483
				c-0.173-0.099-0.387-0.151-0.492-0.351L19.901,100.141z"/>
			<path class="st2" d="M50.589,77.985c0.028-0.013,0.057-0.026,0.085-0.039c-0.002,0.034-0.004,0.068-0.006,0.103
				C50.643,78.027,50.616,78.006,50.589,77.985z"/>
			<path class="st2" d="M19.91,100.134c-0.011-0.003-0.024-0.005-0.033-0.011c-0.003-0.002,0.002-0.016,0.003-0.025
				c0.007,0.015,0.014,0.029,0.021,0.044L19.91,100.134z"/>
		</g>
	</g>
</g>
</svg>