<!-- Generator: Adobe Illustrator 21.0.0, SVG Export Plug-In  -->
<svg version="1.1"
	 xmlns="http://www.w3.org/2000/svg" xmlns:xlink="http://www.w3.org/1999/xlink" xmlns:a="http://ns.adobe.com/AdobeSVGViewerExtensions/3.0/"
	 x="0px" y="0px" width="111.111px" height="35.644px" viewBox="0 0 111.111 35.644"
	 style="enable-background:new 0 0 111.111 35.644;" xml:space="preserve">
<style type="text/css">
	.st0{fill:#D1D3D4;}
	.st1{font-family:'Roboto-Regular';}
	.st2{font-size:31.0812px;}
</style>
<defs>
</defs>
<g>
	<g>
		<g>
			<path class="st0" d="M17.092,30.814c-1.123,0-2.247,0-3.37,0c-0.056-0.153-0.197-0.114-0.307-0.129
				c-3.223-0.444-6.045-1.756-8.428-3.965c-2.731-2.531-4.351-5.656-4.86-9.35C0.112,17.267,0.141,17.139,0,17.092
				c0-1.123,0-2.247,0-3.37c0.153-0.056,0.114-0.197,0.129-0.307c0.444-3.223,1.756-6.045,3.965-8.428
				c2.53-2.731,5.656-4.351,9.35-4.86c0.102-0.014,0.23,0.015,0.277-0.126c1.123,0,2.247,0,3.37,0
				c0.056,0.153,0.197,0.114,0.307,0.129c3.223,0.444,6.045,1.757,8.428,3.965c2.731,2.53,4.351,5.656,4.86,9.35
				c0.014,0.102-0.015,0.23,0.126,0.277c0,1.123,0,2.247,0,3.37c-0.153,0.056-0.114,0.197-0.129,0.307
				c-0.444,3.223-1.757,6.045-3.965,8.428c-2.53,2.731-5.656,4.351-9.35,4.86C17.267,30.702,17.139,30.672,17.092,30.814z
				 M15.413,2.889C8.5,2.886,2.893,8.487,2.889,15.401c-0.004,6.913,5.598,12.52,12.512,12.524
				c6.913,0.004,12.52-5.598,12.524-12.512C27.928,8.5,22.326,2.893,15.413,2.889z"/>
			<path class="st0" d="M6.741,15.057c-0.015-4.822,4.497-8.857,9.65-8.25c1.873,0.221,3.529,0.951,4.941,2.218
				c0.184,0.165,0.208,0.265,0.02,0.446c-0.578,0.556-1.141,1.128-1.704,1.699c-0.127,0.128-0.219,0.164-0.369,0.016
				c-1.474-1.455-3.263-1.821-5.221-1.392c-2.343,0.513-3.994,2.328-4.352,4.671c-0.374,2.447,0.665,4.764,2.767,5.939
				c2.137,1.195,4.249,1.014,6.274-0.334c0.328-0.218,0.272-0.299,0.57,0.099c0.439,0.585,0.873,1.176,1.319,1.755
				c0.128,0.167,0.11,0.256-0.058,0.383c-4.489,3.39-10.917,1.686-13.143-3.491C6.969,17.735,6.756,16.597,6.741,15.057z"/>
		</g>
	</g>
	<g>
		<g>
			<path class="st0" d="M57.114,27.221H43.393v-2.049l6.936-8.271c1.234-1.497,2.072-2.688,2.512-3.573
				c0.44-0.886,0.66-1.778,0.66-2.679c0-1.022-0.298-1.859-0.896-2.512c-0.597-0.653-1.421-0.979-2.474-0.979
				c-1.305,0-2.299,0.4-2.981,1.199c-0.684,0.8-1.024,1.796-1.024,2.99h-2.884l-0.03-0.092c-0.051-1.801,0.551-3.326,1.806-4.575
				c1.255-1.25,2.96-1.874,5.114-1.874c1.974,0,3.526,0.546,4.659,1.639c1.134,1.093,1.7,2.504,1.7,4.234
				c0,1.163-0.321,2.302-0.964,3.414c-0.643,1.113-1.621,2.51-2.937,4.189l-5.569,6.525l0.03,0.076h10.063V27.221z"/>
			<path class="st0" d="M74.399,19.42c0,2.499-0.635,4.478-1.904,5.935c-1.27,1.456-2.978,2.185-5.122,2.185
				c-2.135,0-3.843-0.729-5.122-2.185c-1.28-1.457-1.92-3.436-1.92-5.935v-6.495c0-2.479,0.635-4.452,1.904-5.919
				s2.973-2.2,5.107-2.2c2.145,0,3.857,0.733,5.137,2.2c1.28,1.467,1.92,3.44,1.92,5.919V19.42z M71.41,12.303
				c0-1.589-0.354-2.844-1.063-3.764c-0.708-0.921-1.71-1.382-3.005-1.382c-1.285,0-2.276,0.461-2.975,1.382
				c-0.698,0.92-1.047,2.175-1.047,3.764v7.725c0,1.588,0.356,2.848,1.069,3.778c0.714,0.932,1.708,1.396,2.982,1.396
				c1.295,0,2.292-0.463,2.989-1.389c0.698-0.926,1.048-2.188,1.048-3.786V12.303z"/>
			<path class="st0" d="M86.889,27.221h-3.005V7.886l-4.812,0.046V5.625l7.816-0.819V27.221z"/>
			<path class="st0" d="M108.94,10.77c0,1.153-0.324,2.168-0.972,3.043s-1.507,1.53-2.58,1.965c1.255,0.436,2.262,1.129,3.021,2.079
				c0.759,0.951,1.139,2.049,1.139,3.294c0,2.033-0.66,3.606-1.98,4.72s-3.003,1.669-5.047,1.669c-2.165,0-3.933-0.556-5.304-1.669
				s-2.057-2.687-2.057-4.72c0-1.245,0.387-2.343,1.161-3.294c0.774-0.95,1.818-1.648,3.134-2.094
				c-1.133-0.425-2.028-1.075-2.687-1.95c-0.657-0.875-0.986-1.89-0.986-3.043c0-1.933,0.62-3.409,1.859-4.432
				c1.239-1.021,2.855-1.532,4.849-1.532c1.882,0,3.428,0.514,4.637,1.54C108.336,7.373,108.94,8.848,108.94,10.77z M106.573,21.09
				c0-1.204-0.393-2.195-1.177-2.975s-1.753-1.169-2.906-1.169c-1.255,0-2.291,0.39-3.111,1.169
				c-0.819,0.779-1.229,1.771-1.229,2.975c0,1.244,0.407,2.241,1.222,2.989c0.814,0.749,1.863,1.123,3.148,1.123
				c1.153,0,2.117-0.377,2.892-1.131C106.185,23.318,106.573,22.324,106.573,21.09z M105.95,10.815c0-1.063-0.331-1.938-0.993-2.626
				c-0.663-0.688-1.485-1.032-2.467-1.032c-1.082,0-1.973,0.332-2.671,0.994c-0.698,0.663-1.047,1.551-1.047,2.664
				c0,1.123,0.354,2.033,1.063,2.731c0.708,0.698,1.604,1.047,2.686,1.047c0.981,0,1.799-0.349,2.451-1.047
				S105.95,11.938,105.95,10.815z"/>
		</g>
	</g>
</g>
</svg>